<mxfile host="65bd71144e">
    <diagram id="AEIwIhAO8vxnmm5t5i71" name="Page-1">
        <mxGraphModel dx="1982" dy="388" grid="1" gridSize="10" guides="1" tooltips="1" connect="1" arrows="1" fold="1" page="1" pageScale="1" pageWidth="850" pageHeight="1100" math="0" shadow="0">
            <root>
                <mxCell id="0"/>
                <mxCell id="1" parent="0"/>
                <mxCell id="2" value="s" style="rounded=1;whiteSpace=wrap;html=1;" vertex="1" parent="1">
                    <mxGeometry x="40" y="40" width="40" height="40" as="geometry"/>
                </mxCell>
                <mxCell id="3" value="=" style="text;html=1;strokeColor=none;fillColor=none;align=center;verticalAlign=middle;whiteSpace=wrap;rounded=0;" vertex="1" parent="1">
                    <mxGeometry x="80" y="40" width="40" height="40" as="geometry"/>
                </mxCell>
                <mxCell id="4" value="`" style="rounded=1;whiteSpace=wrap;html=1;" vertex="1" parent="1">
                    <mxGeometry x="120" y="40" width="40" height="40" as="geometry"/>
                </mxCell>
                <mxCell id="6" value="e" style="rounded=1;whiteSpace=wrap;html=1;" vertex="1" parent="1">
                    <mxGeometry x="160" y="40" width="40" height="40" as="geometry"/>
                </mxCell>
                <mxCell id="7" value="c" style="rounded=1;whiteSpace=wrap;html=1;" vertex="1" parent="1">
                    <mxGeometry x="200" y="40" width="40" height="40" as="geometry"/>
                </mxCell>
                <mxCell id="8" value="e" style="rounded=1;whiteSpace=wrap;html=1;" vertex="1" parent="1">
                    <mxGeometry x="240" y="40" width="40" height="40" as="geometry"/>
                </mxCell>
                <mxCell id="9" value="b" style="rounded=1;whiteSpace=wrap;html=1;" vertex="1" parent="1">
                    <mxGeometry x="280" y="40" width="40" height="40" as="geometry"/>
                </mxCell>
                <mxCell id="10" value="a" style="rounded=1;whiteSpace=wrap;html=1;" vertex="1" parent="1">
                    <mxGeometry x="320" y="40" width="40" height="40" as="geometry"/>
                </mxCell>
                <mxCell id="11" value="`" style="rounded=1;whiteSpace=wrap;html=1;" vertex="1" parent="1">
                    <mxGeometry x="360" y="40" width="40" height="40" as="geometry"/>
                </mxCell>
                <mxCell id="12" value="0" style="rounded=1;whiteSpace=wrap;html=1;" vertex="1" parent="1">
                    <mxGeometry x="160" width="40" height="40" as="geometry"/>
                </mxCell>
                <mxCell id="13" value="1" style="rounded=1;whiteSpace=wrap;html=1;" vertex="1" parent="1">
                    <mxGeometry x="200" width="40" height="40" as="geometry"/>
                </mxCell>
                <mxCell id="14" value="2" style="rounded=1;whiteSpace=wrap;html=1;" vertex="1" parent="1">
                    <mxGeometry x="240" width="40" height="40" as="geometry"/>
                </mxCell>
                <mxCell id="15" value="3" style="rounded=1;whiteSpace=wrap;html=1;" vertex="1" parent="1">
                    <mxGeometry x="280" width="40" height="40" as="geometry"/>
                </mxCell>
                <mxCell id="16" value="4" style="rounded=1;whiteSpace=wrap;html=1;" vertex="1" parent="1">
                    <mxGeometry x="320" width="40" height="40" as="geometry"/>
                </mxCell>
                <mxCell id="17" value="k" style="rounded=1;whiteSpace=wrap;html=1;" vertex="1" parent="1">
                    <mxGeometry x="40" y="120" width="40" height="40" as="geometry"/>
                </mxCell>
                <mxCell id="18" value="=" style="text;html=1;strokeColor=none;fillColor=none;align=center;verticalAlign=middle;whiteSpace=wrap;rounded=0;" vertex="1" parent="1">
                    <mxGeometry x="80" y="120" width="40" height="40" as="geometry"/>
                </mxCell>
                <mxCell id="19" value="2" style="rounded=1;whiteSpace=wrap;html=1;" vertex="1" parent="1">
                    <mxGeometry x="120" y="120" width="40" height="40" as="geometry"/>
                </mxCell>
                <mxCell id="20" value="we will need a &lt;font color=&quot;#33ffff&quot;&gt;START&lt;/font&gt; and &lt;font color=&quot;#33ffff&quot;&gt;END&lt;/font&gt; variable for our window, &lt;font color=&quot;#33ffff&quot;&gt;SOFAR&lt;/font&gt; variable to keep track of values inside our window, GLOBAL &lt;font color=&quot;#33ffff&quot;&gt;MAX&lt;/font&gt; or MIN of what we want ot return&amp;nbsp;" style="rounded=1;whiteSpace=wrap;html=1;" vertex="1" parent="1">
                    <mxGeometry x="40" y="200" width="480" height="40" as="geometry"/>
                </mxCell>
                <mxCell id="21" value="START" style="rounded=1;whiteSpace=wrap;html=1;fontColor=#33FFFF;" vertex="1" parent="1">
                    <mxGeometry x="280" y="280" width="40" height="40" as="geometry"/>
                </mxCell>
                <mxCell id="22" value="END" style="rounded=1;whiteSpace=wrap;html=1;fontColor=#33FFFF;" vertex="1" parent="1">
                    <mxGeometry x="360" y="280" width="40" height="40" as="geometry"/>
                </mxCell>
                <mxCell id="48" value="" style="edgeStyle=none;html=1;fontColor=#33FFFF;" edge="1" parent="1" source="23" target="47">
                    <mxGeometry relative="1" as="geometry"/>
                </mxCell>
                <mxCell id="23" value="MAX" style="rounded=1;whiteSpace=wrap;html=1;fontColor=#33FFFF;" vertex="1" parent="1">
                    <mxGeometry x="440" y="280" width="40" height="40" as="geometry"/>
                </mxCell>
                <mxCell id="29" value="" style="edgeStyle=none;html=1;fontColor=#33FFFF;" edge="1" parent="1" source="24" target="28">
                    <mxGeometry relative="1" as="geometry"/>
                </mxCell>
                <mxCell id="36" value="" style="edgeStyle=none;html=1;fontColor=#33FFFF;" edge="1" parent="1" source="24" target="35">
                    <mxGeometry relative="1" as="geometry"/>
                </mxCell>
                <mxCell id="24" value="SOFAR" style="rounded=1;whiteSpace=wrap;html=1;fontColor=#33FFFF;" vertex="1" parent="1">
                    <mxGeometry x="80" y="280" width="40" height="40" as="geometry"/>
                </mxCell>
                <mxCell id="31" value="" style="edgeStyle=none;html=1;fontColor=#33FFFF;" edge="1" parent="1" source="28" target="30">
                    <mxGeometry relative="1" as="geometry"/>
                </mxCell>
                <mxCell id="28" value="map()" style="rounded=1;whiteSpace=wrap;html=1;fontColor=#33FFFF;" vertex="1" parent="1">
                    <mxGeometry x="-10" y="280" width="40" height="40" as="geometry"/>
                </mxCell>
                <mxCell id="30" value="as we extend window and update END, we want ot update our map()" style="rounded=1;whiteSpace=wrap;html=1;fontColor=#33FFFF;" vertex="1" parent="1">
                    <mxGeometry x="-180" y="320" width="190" height="40" as="geometry"/>
                </mxCell>
                <mxCell id="32" value="e" style="rounded=1;whiteSpace=wrap;html=1;fontColor=#33FFFF;" vertex="1" parent="1">
                    <mxGeometry x="280" y="360" width="40" height="40" as="geometry"/>
                </mxCell>
                <mxCell id="33" value="e" style="rounded=1;whiteSpace=wrap;html=1;fontColor=#33FFFF;" vertex="1" parent="1">
                    <mxGeometry x="360" y="360" width="40" height="40" as="geometry"/>
                </mxCell>
                <mxCell id="34" value="0" style="rounded=1;whiteSpace=wrap;html=1;fontColor=#33FFFF;" vertex="1" parent="1">
                    <mxGeometry x="440" y="320" width="40" height="40" as="geometry"/>
                </mxCell>
                <mxCell id="35" value="e:1" style="rounded=1;whiteSpace=wrap;html=1;fontColor=#33FFFF;" vertex="1" parent="1">
                    <mxGeometry x="40" y="360" width="160" height="40" as="geometry"/>
                </mxCell>
                <mxCell id="37" value="1" style="rounded=1;whiteSpace=wrap;html=1;fontColor=#33FFFF;" vertex="1" parent="1">
                    <mxGeometry x="440" y="360" width="40" height="40" as="geometry"/>
                </mxCell>
                <mxCell id="38" value="CHECK: does our SOFAR have less than or equal to 2 distinct characters, if so incr. END" style="rounded=1;whiteSpace=wrap;html=1;fontColor=#33FFFF;" vertex="1" parent="1">
                    <mxGeometry x="520" y="360" width="260" height="40" as="geometry"/>
                </mxCell>
                <mxCell id="39" value="e" style="rounded=1;whiteSpace=wrap;html=1;fontColor=#33FFFF;" vertex="1" parent="1">
                    <mxGeometry x="280" y="400" width="40" height="40" as="geometry"/>
                </mxCell>
                <mxCell id="40" value="c" style="rounded=1;whiteSpace=wrap;html=1;fontColor=#33FFFF;" vertex="1" parent="1">
                    <mxGeometry x="360" y="400" width="40" height="40" as="geometry"/>
                </mxCell>
                <mxCell id="41" value="2" style="rounded=1;whiteSpace=wrap;html=1;fontColor=#33FFFF;" vertex="1" parent="1">
                    <mxGeometry x="440" y="400" width="40" height="40" as="geometry"/>
                </mxCell>
                <mxCell id="42" value="e : 1 , c : 1" style="rounded=1;whiteSpace=wrap;html=1;fontColor=#33FFFF;" vertex="1" parent="1">
                    <mxGeometry x="40" y="400" width="160" height="40" as="geometry"/>
                </mxCell>
                <mxCell id="43" value="e" style="rounded=1;whiteSpace=wrap;html=1;fontColor=#33FFFF;" vertex="1" parent="1">
                    <mxGeometry x="280" y="440" width="40" height="40" as="geometry"/>
                </mxCell>
                <mxCell id="44" value="e" style="rounded=1;whiteSpace=wrap;html=1;fontColor=#33FFFF;" vertex="1" parent="1">
                    <mxGeometry x="360" y="440" width="40" height="40" as="geometry"/>
                </mxCell>
                <mxCell id="45" value="3" style="rounded=1;whiteSpace=wrap;html=1;fontColor=#ffffff;fillColor=#60a917;strokeColor=#2D7600;" vertex="1" parent="1">
                    <mxGeometry x="440" y="440" width="40" height="40" as="geometry"/>
                </mxCell>
                <mxCell id="46" value="e : 2&amp;nbsp;, c : 1" style="rounded=1;whiteSpace=wrap;html=1;fontColor=#33FFFF;" vertex="1" parent="1">
                    <mxGeometry x="40" y="440" width="160" height="40" as="geometry"/>
                </mxCell>
                <mxCell id="47" value="= END - START + 1" style="rounded=1;whiteSpace=wrap;html=1;fontColor=#33FFFF;" vertex="1" parent="1">
                    <mxGeometry x="560" y="280" width="160" height="40" as="geometry"/>
                </mxCell>
                <mxCell id="54" value="" style="edgeStyle=none;html=1;fontColor=#33FFFF;" edge="1" parent="1" source="49" target="53">
                    <mxGeometry relative="1" as="geometry"/>
                </mxCell>
                <mxCell id="49" value="e : 2&amp;nbsp;, c : 1 , b: 1" style="rounded=1;whiteSpace=wrap;html=1;fontColor=#33FFFF;strokeColor=#FF0000;" vertex="1" parent="1">
                    <mxGeometry x="40" y="480" width="160" height="40" as="geometry"/>
                </mxCell>
                <mxCell id="57" value="" style="edgeStyle=none;html=1;fontColor=#33FFFF;" edge="1" parent="1" source="53" target="56">
                    <mxGeometry relative="1" as="geometry"/>
                </mxCell>
                <mxCell id="53" value="distinct chars &amp;gt; 2, move START until = 2" style="rounded=1;whiteSpace=wrap;html=1;fontColor=#33FFFF;strokeColor=#FF0000;" vertex="1" parent="1">
                    <mxGeometry x="-160" y="480" width="160" height="40" as="geometry"/>
                </mxCell>
                <mxCell id="56" value="START" style="rounded=1;whiteSpace=wrap;html=1;fontColor=#33FFFF;strokeColor=#FF0000;" vertex="1" parent="1">
                    <mxGeometry x="-160" y="540" width="40" height="40" as="geometry"/>
                </mxCell>
                <mxCell id="60" value="" style="edgeStyle=none;html=1;fontColor=#33FFFF;entryX=0;entryY=0.5;entryDx=0;entryDy=0;" edge="1" parent="1" source="58" target="61">
                    <mxGeometry relative="1" as="geometry">
                        <mxPoint x="40" y="560" as="targetPoint"/>
                    </mxGeometry>
                </mxCell>
                <mxCell id="58" value="c" style="rounded=1;whiteSpace=wrap;html=1;fontColor=#33FFFF;strokeColor=#FF0000;" vertex="1" parent="1">
                    <mxGeometry x="-120" y="540" width="40" height="40" as="geometry"/>
                </mxCell>
                <mxCell id="61" value="e : 1 , c : 1 , b: 1" style="rounded=1;whiteSpace=wrap;html=1;fontColor=#33FFFF;strokeColor=#FF0000;" vertex="1" parent="1">
                    <mxGeometry x="40" y="540" width="160" height="40" as="geometry"/>
                </mxCell>
                <mxCell id="62" value="START" style="rounded=1;whiteSpace=wrap;html=1;fontColor=#33FFFF;strokeColor=#FF0000;" vertex="1" parent="1">
                    <mxGeometry x="-160" y="580" width="40" height="40" as="geometry"/>
                </mxCell>
                <mxCell id="63" value="" style="edgeStyle=none;html=1;fontColor=#33FFFF;entryX=0;entryY=0.5;entryDx=0;entryDy=0;" edge="1" source="64" target="65" parent="1">
                    <mxGeometry relative="1" as="geometry">
                        <mxPoint x="40" y="600" as="targetPoint"/>
                    </mxGeometry>
                </mxCell>
                <mxCell id="64" value="e" style="rounded=1;whiteSpace=wrap;html=1;fontColor=#33FFFF;strokeColor=#FF0000;" vertex="1" parent="1">
                    <mxGeometry x="-120" y="580" width="40" height="40" as="geometry"/>
                </mxCell>
                <mxCell id="65" value="e : 1&amp;nbsp;, b: 1" style="rounded=1;whiteSpace=wrap;html=1;fontColor=#33FFFF;strokeColor=#FFFFFF;" vertex="1" parent="1">
                    <mxGeometry x="40" y="580" width="160" height="40" as="geometry"/>
                </mxCell>
                <mxCell id="66" value="e" style="rounded=1;whiteSpace=wrap;html=1;fontColor=#33FFFF;" vertex="1" parent="1">
                    <mxGeometry x="280" y="580" width="40" height="40" as="geometry"/>
                </mxCell>
                <mxCell id="67" value="b" style="rounded=1;whiteSpace=wrap;html=1;fontColor=#33FFFF;" vertex="1" parent="1">
                    <mxGeometry x="360" y="580" width="40" height="40" as="geometry"/>
                </mxCell>
                <mxCell id="68" value="3" style="rounded=1;whiteSpace=wrap;html=1;fontColor=#ffffff;fillColor=#60a917;strokeColor=#2D7600;" vertex="1" parent="1">
                    <mxGeometry x="440" y="580" width="40" height="40" as="geometry"/>
                </mxCell>
                <mxCell id="77" style="edgeStyle=none;html=1;fontColor=#33FFFF;" edge="1" parent="1" source="69" target="73">
                    <mxGeometry relative="1" as="geometry"/>
                </mxCell>
                <mxCell id="69" value="e : 1&amp;nbsp;, b: 1 , a:1" style="rounded=1;whiteSpace=wrap;html=1;fontColor=#33FFFF;strokeColor=#FF0000;" vertex="1" parent="1">
                    <mxGeometry x="40" y="620" width="160" height="40" as="geometry"/>
                </mxCell>
                <mxCell id="70" value="b" style="rounded=1;whiteSpace=wrap;html=1;fontColor=#33FFFF;" vertex="1" parent="1">
                    <mxGeometry x="280" y="660" width="40" height="40" as="geometry"/>
                </mxCell>
                <mxCell id="71" value="a" style="rounded=1;whiteSpace=wrap;html=1;fontColor=#33FFFF;" vertex="1" parent="1">
                    <mxGeometry x="360" y="660" width="40" height="40" as="geometry"/>
                </mxCell>
                <mxCell id="72" value="3" style="rounded=1;whiteSpace=wrap;html=1;fontColor=#ffffff;fillColor=#60a917;strokeColor=#2D7600;" vertex="1" parent="1">
                    <mxGeometry x="440" y="660" width="40" height="40" as="geometry"/>
                </mxCell>
                <mxCell id="73" value="START" style="rounded=1;whiteSpace=wrap;html=1;fontColor=#33FFFF;strokeColor=#FF0000;" vertex="1" parent="1">
                    <mxGeometry x="-160" y="660" width="40" height="40" as="geometry"/>
                </mxCell>
                <mxCell id="74" value="" style="edgeStyle=none;html=1;fontColor=#33FFFF;entryX=0;entryY=0.5;entryDx=0;entryDy=0;" edge="1" source="75" target="76" parent="1">
                    <mxGeometry relative="1" as="geometry">
                        <mxPoint x="40" y="680" as="targetPoint"/>
                    </mxGeometry>
                </mxCell>
                <mxCell id="75" value="b" style="rounded=1;whiteSpace=wrap;html=1;fontColor=#33FFFF;strokeColor=#FF0000;" vertex="1" parent="1">
                    <mxGeometry x="-120" y="660" width="40" height="40" as="geometry"/>
                </mxCell>
                <mxCell id="76" value="&lt;meta charset=&quot;utf-8&quot;&gt;&lt;span style=&quot;color: rgb(51, 255, 255); font-family: helvetica; font-size: 12px; font-style: normal; font-weight: 400; letter-spacing: normal; text-align: center; text-indent: 0px; text-transform: none; word-spacing: 0px; background-color: rgb(42, 42, 42); display: inline; float: none;&quot;&gt;b: 1 , a:1&lt;/span&gt;" style="rounded=1;whiteSpace=wrap;html=1;fontColor=#33FFFF;strokeColor=#FFFFFF;" vertex="1" parent="1">
                    <mxGeometry x="40" y="660" width="160" height="40" as="geometry"/>
                </mxCell>
            </root>
        </mxGraphModel>
    </diagram>
</mxfile>